# xmcd CD database file
#
# Track frame offsets:
#	150
#	61753
#	70685
#	104653
#	188534
#
# Disc length: 3344 seconds
#
# Revision: 0
# Processed by: cddbd v1.5.1PL0 Copyright (c) Steve Scherf et al.
# Submitted via: CDex 1.51
#
DISCID=3b0d0e05
DTITLE=Mahavishnu Orchestra - Irish Streams
DYEAR=1973
DGENRE=Jazz
TTITLE0=Meeting of the Spirits
TTITLE1=Open Country Joy
TTITLE2=Improvisation > Open Country Joy Reprise
TTITLE3=Dance Of Maya
TTITLE4=Dawn
EXTD=YEAR: 1973
EXTT0=
EXTT1=
EXTT2=
EXTT3=
EXTT4=
PLAYORDER=
